<?xml version="1.0" encoding="UTF-8"?>
<svg version="1.1" xmlns="http://www.w3.org/2000/svg" width="96" height="96">
<path d="M0 0 C3.04450452 1.57026695 4.21792293 2.20359332 6 5 C6.89942167 9.66770554 6.79616585 14.32411406 6.7265625 19.05859375 C6.72552417 20.44954933 6.72656394 21.84050788 6.72958374 23.23146057 C6.72940463 26.14279159 6.70862281 29.0530111 6.67236328 31.96411133 C6.62702788 35.68446015 6.625895 39.40318364 6.63939857 43.12373257 C6.64610248 45.99528797 6.63277252 48.86647699 6.61314011 51.73796272 C6.60547422 53.10898988 6.60312381 54.48005794 6.6063118 55.85110283 C6.61147847 69.14183469 6.61147847 69.14183469 2 74 C-1.95537605 76.7021876 -6.37111273 76.83336473 -11 76 C-13.75569447 73.81840855 -15.43588747 72.12822506 -17 69 C-18.99080727 68.49869796 -18.99080727 68.49869796 -21.3125 68.1875 C-24.50496097 67.51353602 -25.86008104 67.1148053 -28.4375 65 C-30.27243902 61.47691708 -30.73666732 58.3098736 -31.36328125 54.41796875 C-32.04357358 51.83452734 -32.78329259 50.75797816 -34.625 48.875 C-37.35731945 45.56745541 -37.68444466 44.08092661 -37.44140625 39.93359375 C-37 38 -37 38 -35 35.0625 C-32.85723123 31.78138532 -32.82285878 31.18064329 -33.0625 27.5 C-33.24125847 23.97845818 -32.90636528 22.21436394 -30.6875 19.4375 C-28 17 -28 17 -25 17 C-25.12375 15.6696875 -25.12375 15.6696875 -25.25 14.3125 C-24.94530814 10.27533282 -23.77959995 8.86135289 -21 6 C-17.78548731 4.39274365 -14.56387464 4.94251815 -11 5 C-10.71125 4.360625 -10.4225 3.72125 -10.125 3.0625 C-7.86987157 -1.07190213 -4.2957216 -0.42957216 0 0 Z " fill="#E74D2F" transform="translate(40,10)"/>
<path d="M0 0 C2.5 1.375 2.5 1.375 4 3 C4 3.66 4 4.32 4 5 C5.5778125 4.9071875 5.5778125 4.9071875 7.1875 4.8125 C11.21353023 5.01050149 12.85623579 5.57481047 16 8 C18.29013653 11.4352048 18.17842973 12.985331 18 17 C18.763125 17.2475 19.52625 17.495 20.3125 17.75 C23.44463315 19.20680612 24.48717792 19.89473363 26 23 C26.02777557 24.45821763 26.00117123 25.91790834 25.9375 27.375 C25.78050587 31.08247684 25.84386932 31.77290083 28.0625 35 C30.47510588 38.73564781 30.25975715 40.67501539 29.5546875 44.94140625 C28.86134921 47.51457018 27.96741991 49.18997368 26 51 C25.34 51 24.68 51 24 51 C24.04640625 51.58007812 24.0928125 52.16015625 24.140625 52.7578125 C24.40087738 58.3904175 23.87289911 61.58919824 20 66 C17.54645597 67.71748082 16.07227415 67.99384901 13.0625 68.25 C8.70431702 69.31731012 7.65990539 71.45345948 5 75 C1.53749757 76.73125121 -2.21408229 76.47815224 -6 76 C-9.60091462 73.85477427 -11.46916913 71.85912746 -13 68 C-13.27415466 65.16090393 -13.27415466 65.16090393 -13.30639648 61.84204102 C-13.32238388 60.59717422 -13.33837128 59.35230743 -13.35484314 58.06971741 C-13.36121941 56.7144512 -13.36661229 55.35918005 -13.37109375 54.00390625 C-13.38006451 52.60912481 -13.38918644 51.21434433 -13.39845276 49.81956482 C-13.41492433 46.89848495 -13.42263971 43.97751946 -13.42553711 41.05639648 C-13.43092458 37.3191191 -13.46862512 33.58292074 -13.51428127 29.84594822 C-13.54406671 26.96595865 -13.55126093 24.08622875 -13.55226326 21.20609856 C-13.55646137 19.82859279 -13.5688796 18.45108596 -13.58978081 17.07373238 C-13.75911297 4.95211701 -13.75911297 4.95211701 -10.59619141 1.65405273 C-6.56735462 -0.91274896 -4.71354466 -0.59854535 0 0 Z " fill="#E84E2F" transform="translate(63,10)"/>
<path d="M0 0 C3.04450452 1.57026695 4.21792293 2.20359332 6 5 C6.89942167 9.66770554 6.79616585 14.32411406 6.7265625 19.05859375 C6.72552417 20.44954933 6.72656394 21.84050788 6.72958374 23.23146057 C6.72940463 26.14279159 6.70862281 29.0530111 6.67236328 31.96411133 C6.62702788 35.68446015 6.625895 39.40318364 6.63939857 43.12373257 C6.64610248 45.99528797 6.63277252 48.86647699 6.61314011 51.73796272 C6.60547422 53.10898988 6.60312381 54.48005794 6.6063118 55.85110283 C6.61147847 69.14183469 6.61147847 69.14183469 2 74 C-1.95537605 76.7021876 -6.37111273 76.83336473 -11 76 C-13.75569447 73.81840855 -15.43588747 72.12822506 -17 69 C-18.99080727 68.49869796 -18.99080727 68.49869796 -21.3125 68.1875 C-24.50496097 67.51353602 -25.86008104 67.1148053 -28.4375 65 C-30.27243902 61.47691708 -30.73666732 58.3098736 -31.36328125 54.41796875 C-32.04357358 51.83452734 -32.78329259 50.75797816 -34.625 48.875 C-37.35731945 45.56745541 -37.68444466 44.08092661 -37.44140625 39.93359375 C-37 38 -37 38 -35 35.0625 C-32.85723123 31.78138532 -32.82285878 31.18064329 -33.0625 27.5 C-33.24125847 23.97845818 -32.90636528 22.21436394 -30.6875 19.4375 C-28 17 -28 17 -25 17 C-25.12375 15.6696875 -25.12375 15.6696875 -25.25 14.3125 C-24.94530814 10.27533282 -23.77959995 8.86135289 -21 6 C-17.78548731 4.39274365 -14.56387464 4.94251815 -11 5 C-10.71125 4.360625 -10.4225 3.72125 -10.125 3.0625 C-7.86987157 -1.07190213 -4.2957216 -0.42957216 0 0 Z M-7.875 4.9375 C-10.26796564 7.2600843 -10.88340688 7.2961279 -14.0625 7.5625 C-17.81881886 7.65517075 -17.81881886 7.65517075 -19.74609375 9.25 C-21.79897042 12.11507399 -21.14525428 14.48871144 -20.6328125 17.8359375 C-20.08415377 20.24326649 -20.08415377 20.24326649 -17.875 22.5625 C-14.16027542 24.41986229 -12.11473594 24.63849351 -8 24 C-5.40587232 22.53859084 -3.32309444 20.89640362 -1 19 C-1.45375 19.7425 -1.9075 20.485 -2.375 21.25 C-3.68640796 23.46930578 -4.88280803 25.67967822 -6 28 C-5.360625 28.7425 -4.72125 29.485 -4.0625 30.25 C-2.21666593 32.7111121 -1.43930826 34.03466926 -1 37 C-2.75409079 35.24590921 -4.43343154 33.50089702 -6.0625 31.625 C-9.38973086 28.65172987 -12.68791981 27.07802183 -16.703125 25.20703125 C-19 24 -19 24 -21.3125 21.625 C-21.869375 21.08875 -22.42625 20.5525 -23 20 C-26.3321498 20.19198522 -26.3321498 20.19198522 -29 22 C-28.96778831 23.77164312 -28.89923251 25.54268803 -28.8125 27.3125 C-28.73614734 32.71965655 -28.73614734 32.71965655 -31 35.125 C-31.99 36.053125 -31.99 36.053125 -33 37 C-33.60140833 40.08800048 -33.5782663 42.9102438 -33 46 C-31.31083369 48.61106131 -31.31083369 48.61106131 -29 50 C-28.34 50 -27.68 50 -27 50 C-27.33 50.99 -27.66 51.98 -28 53 C-28.48371102 57.35339915 -28.48792815 59.30507203 -25.9375 62.9375 C-22.25315134 65.5243831 -20.42058395 65.63151199 -16 65 C-12.37239927 63.35109058 -9.91347015 61.52481343 -8 58 C-7.4458056 54.27898049 -7.69670601 52.53379741 -9.5625 49.25 C-12.53998983 46.50154785 -15.1112275 45.95384986 -19 45 C-19.33 44.34 -19.66 43.68 -20 43 C-10.32116788 44.57177616 -10.32116788 44.57177616 -7 49 C-5.46785112 52.06429776 -5.77061452 54.6165642 -6 58 C-7.5 60.8125 -7.5 60.8125 -9 63 C-9 63.66 -9 64.32 -9 65 C-10.65 65.66 -12.3 66.32 -14 67 C-12.84826645 69.46800047 -11.95216435 71.04783565 -10 73 C-4.54435142 73.49332246 -4.54435142 73.49332246 0.4375 71.6875 C3.38142512 68.50806087 3.13477224 65.23040138 3.16113281 61.10742188 C3.17074036 59.89606567 3.1803479 58.68470947 3.19024658 57.43664551 C3.1966214 55.47253723 3.1966214 55.47253723 3.203125 53.46875 C3.20887809 52.1125895 3.2146358 50.75642902 3.22039795 49.40026855 C3.2308953 46.5589968 3.23674679 43.71775325 3.24023438 40.87646484 C3.24572823 37.23454512 3.26978003 33.59299755 3.29820633 29.95119476 C3.31681845 27.15109154 3.32203744 24.35107844 3.32357025 21.55091858 C3.32807139 19.55501993 3.34672038 17.55916949 3.36553955 15.56335449 C3.36253845 14.35199829 3.35953735 13.14064209 3.35644531 11.89257812 C3.36009094 10.82463013 3.36373657 9.75668213 3.36749268 8.65637207 C3.21086887 5.9856882 3.21086887 5.9856882 1.66131592 4.15905762 C-1.71893835 1.80074069 -5.0444239 2.01257137 -7.875 4.9375 Z " fill="#393745" transform="translate(40,10)"/>
<path d="M0 0 C2.5 1.375 2.5 1.375 4 3 C4 3.66 4 4.32 4 5 C5.5778125 4.9071875 5.5778125 4.9071875 7.1875 4.8125 C11.21353023 5.01050149 12.85623579 5.57481047 16 8 C18.29013653 11.4352048 18.17842973 12.985331 18 17 C18.763125 17.2475 19.52625 17.495 20.3125 17.75 C23.44463315 19.20680612 24.48717792 19.89473363 26 23 C26.02777557 24.45821763 26.00117123 25.91790834 25.9375 27.375 C25.78050587 31.08247684 25.84386932 31.77290083 28.0625 35 C30.47510588 38.73564781 30.25975715 40.67501539 29.5546875 44.94140625 C28.86134921 47.51457018 27.96741991 49.18997368 26 51 C25.34 51 24.68 51 24 51 C24.04640625 51.58007812 24.0928125 52.16015625 24.140625 52.7578125 C24.40087738 58.3904175 23.87289911 61.58919824 20 66 C17.54645597 67.71748082 16.07227415 67.99384901 13.0625 68.25 C8.70431702 69.31731012 7.65990539 71.45345948 5 75 C1.53749757 76.73125121 -2.21408229 76.47815224 -6 76 C-9.60091462 73.85477427 -11.46916913 71.85912746 -13 68 C-13.27415466 65.16090393 -13.27415466 65.16090393 -13.30639648 61.84204102 C-13.32238388 60.59717422 -13.33837128 59.35230743 -13.35484314 58.06971741 C-13.36121941 56.7144512 -13.36661229 55.35918005 -13.37109375 54.00390625 C-13.38006451 52.60912481 -13.38918644 51.21434433 -13.39845276 49.81956482 C-13.41492433 46.89848495 -13.42263971 43.97751946 -13.42553711 41.05639648 C-13.43092458 37.3191191 -13.46862512 33.58292074 -13.51428127 29.84594822 C-13.54406671 26.96595865 -13.55126093 24.08622875 -13.55226326 21.20609856 C-13.55646137 19.82859279 -13.5688796 18.45108596 -13.58978081 17.07373238 C-13.75911297 4.95211701 -13.75911297 4.95211701 -10.59619141 1.65405273 C-6.56735462 -0.91274896 -4.71354466 -0.59854535 0 0 Z M-8.65933228 4.16104126 C-10.55819002 6.76565461 -10.38097893 8.65537087 -10.38818359 11.86083984 C-10.39764008 13.06574066 -10.40709656 14.27064148 -10.4168396 15.51205444 C-10.41076691 16.81518585 -10.40469421 18.11831726 -10.3984375 19.4609375 C-10.40045894 20.81230832 -10.40337097 22.16367808 -10.40713501 23.51504517 C-10.41155814 26.34802633 -10.40513008 29.18072371 -10.39111328 32.01367188 C-10.37405364 35.63752637 -10.38384143 39.2607127 -10.40183067 42.88454247 C-10.41269706 45.67618802 -10.40920863 48.46767652 -10.4014473 51.25932693 C-10.39848312 53.24290654 -10.40756725 55.22649234 -10.4168396 57.21005249 C-10.40738312 58.42125763 -10.39792664 59.63246277 -10.38818359 60.88037109 C-10.38579681 61.94387787 -10.38341003 63.00738464 -10.38095093 64.1031189 C-9.94424395 67.42398811 -8.97158307 69.31492886 -7 72 C-3.89951072 73.55024464 -1.42105782 73.28992015 2 73 C4.98945544 71.40972613 4.98945544 71.40972613 7 69 C7 67.68 7 66.36 7 65 C7.88751953 65.08701172 7.88751953 65.08701172 8.79296875 65.17578125 C13.15640332 65.42491699 15.34309764 65.44240363 19.0625 62.9375 C21.43493009 59.34058987 21.15416055 57.22200996 21 53 C18.27053158 52.66897296 15.5489057 52.38454461 12.8125 52.125 C12.04357422 52.02703125 11.27464844 51.9290625 10.48242188 51.828125 C6.1449 51.36832349 6.1449 51.36832349 2.43896484 53.29589844 C1.22829333 54.81479866 0.10951304 56.40570887 -1 58 C-2.485 58.495 -2.485 58.495 -4 59 C-1.51545911 54.21495828 0.47951843 51.13922331 5 48 C4.68289062 47.43796875 4.36578125 46.8759375 4.0390625 46.296875 C2.93125475 43.84803683 2.61024601 41.91612145 2.375 39.25 C2.30023438 38.45078125 2.22546875 37.6515625 2.1484375 36.828125 C2.07496094 35.92320313 2.07496094 35.92320313 2 35 C2.99 35 3.98 35 5 35 C4.938125 36.216875 4.87625 37.43375 4.8125 38.6875 C4.81942219 42.5985386 5.45259982 44.90672835 8 48 C12.43616901 50.73885217 16.93965624 50.64725327 22 50 C24.81426975 48.76922685 24.81426975 48.76922685 26 46 C26.59132848 42.87112602 26.69211988 40.11739945 26 37 C23.6816144 34.39089037 23.6816144 34.39089037 21 33 C21.33 32.01 21.66 31.02 22 30 C22.28455916 27.2364928 22.17817991 24.80633361 22 22 C19.33043698 19.78181673 19.33043698 19.78181673 17.0625 20.125 C14.82847806 20.87078825 14.82847806 20.87078825 13.4375 23.0625 C9.4611272 26.22320658 4.89531881 25.30384737 0 25 C0 24.01 0 23.02 0 22 C0.99 22.33 1.98 22.66 3 23 C6.45786015 23.50007794 6.45786015 23.50007794 10 23 C13.26420707 20.23797863 13.92465121 18.62431852 14.4375 14.375 C14.2213911 11.14924826 14.2213911 11.14924826 13 9.125 C10.38123213 7.65194307 7.86850606 7.63003421 4.91796875 7.3828125 C2.12766372 6.82588807 0.93523118 4.99973888 -1 3 C-4.11695358 2.55472092 -6.02770603 2.31968212 -8.65933228 4.16104126 Z " fill="#363446" transform="translate(63,10)"/>
<path d="M0 0 C0.66 0 1.32 0 2 0 C2.09285592 7.84969392 2.16384356 15.69925815 2.20724869 23.54936409 C2.22808571 27.1948912 2.25633084 30.84004136 2.30175781 34.48535156 C2.34535643 38.00614987 2.36916631 41.52658661 2.37950897 45.04763412 C2.39045006 47.03847947 2.42165399 49.02918022 2.45318604 51.01980591 C2.45597773 62.30041292 2.45597773 62.30041292 -2 67 C-5.95537605 69.7021876 -10.37111273 69.83336473 -15 69 C-17.75569447 66.81840855 -19.43588747 65.12822506 -21 62 C-22.99080727 61.49869796 -22.99080727 61.49869796 -25.3125 61.1875 C-28.50496097 60.51353602 -29.86008104 60.1148053 -32.4375 58 C-34.59430783 53.85892896 -35.59806922 49.64978745 -36 45 C-35.67 44.01 -35.34 43.02 -35 42 C-33.68 42.33 -32.36 42.66 -31 43 C-31.04640625 43.67546875 -31.0928125 44.3509375 -31.140625 45.046875 C-31.43637039 50.59216095 -31.43637039 50.59216095 -29.4375 55.625 C-26.05297673 57.53421825 -23.83294661 57.47071274 -20 57 C-16.4613006 55.34860695 -15.18929847 54.28394771 -13 51 C-12.4161804 48.0850745 -12.4161804 48.0850745 -13 45 C-16.15309622 40.91952254 -19.04032572 39.26875388 -24 38 C-24 37.34 -24 36.68 -24 36 C-18.30707666 35.54456613 -15.3984985 36.31753614 -11 40 C-8.40456466 43.42125567 -8.57537958 46.82456585 -9 51 C-10.42806544 54.82875924 -12.03174269 57.4938655 -15.75 59.4375 C-16.4925 59.623125 -17.235 59.80875 -18 60 C-16.5404226 62.66169042 -16.5404226 62.66169042 -14 65 C-11.10527478 65.59991287 -9.01366821 65.33485202 -6 65 C-2.91501596 62.94334397 -2.23727525 62.33221081 -1 59 C-0.67392687 56.21273904 -0.67392687 56.21273904 -0.68115234 53.12988281 C-0.66128265 51.94896057 -0.64141296 50.76803833 -0.62094116 49.55133057 C-0.60938995 48.28142273 -0.59783875 47.01151489 -0.5859375 45.703125 C-0.56657135 44.39921814 -0.5472052 43.09531128 -0.5272522 41.75189209 C-0.47598917 38.29306064 -0.43633256 34.83419034 -0.39910889 31.37518311 C-0.35903247 27.84247268 -0.30795678 24.30992307 -0.2578125 20.77734375 C-0.16112245 13.85168009 -0.07669565 6.92591315 0 0 Z " fill="#283148" transform="translate(44,17)"/>
<path d="M0 0 C3.77549654 0.47942813 5.39247117 0.74288544 7.9375 3.5 C7.9375 4.16 7.9375 4.82 7.9375 5.5 C9.5153125 5.4071875 9.5153125 5.4071875 11.125 5.3125 C15.15103023 5.51050149 16.79373579 6.07481047 19.9375 8.5 C22.22763653 11.9352048 22.11592973 13.485331 21.9375 17.5 C22.5975 17.83 23.2575 18.16 23.9375 18.5 C23.009375 18.62375 23.009375 18.62375 22.0625 18.75 C19.78395565 19.29278299 19.78395565 19.29278299 18.875 21.375 C18.565625 22.07625 18.25625 22.7775 17.9375 23.5 C16.26535091 25.62352676 15.45652203 26.42228547 12.74609375 26.828125 C11.96363281 26.80234375 11.18117188 26.7765625 10.375 26.75 C9.19744141 26.72679687 9.19744141 26.72679687 7.99609375 26.703125 C5.9375 26.5 5.9375 26.5 3.9375 25.5 C3.9375 24.51 3.9375 23.52 3.9375 22.5 C4.96810547 22.56960937 4.96810547 22.56960937 6.01953125 22.640625 C6.92058594 22.67671875 7.82164063 22.7128125 8.75 22.75 C10.08998047 22.81960937 10.08998047 22.81960937 11.45703125 22.890625 C14.05866288 22.72875337 14.05866288 22.72875337 15.7421875 20.7109375 C17.4547206 17.54331091 17.26490613 15.0359862 16.9375 11.5 C14.34989795 8.91239795 12.39703476 9.25221285 8.890625 8.91796875 C6.08936526 8.31849917 4.88885097 6.51639601 2.9375 4.5 C-0.17568376 4.05525946 -2.08830294 3.82013043 -4.71907043 5.65608215 C-6.62806888 8.27626887 -6.46163577 10.21616955 -6.49487305 13.44018555 C-6.51466721 14.66122482 -6.53446136 15.8822641 -6.55485535 17.14030457 C-6.56124527 18.45912125 -6.56763519 19.77793793 -6.57421875 21.13671875 C-6.59106431 22.50008263 -6.6092144 23.86343097 -6.62861633 25.22676086 C-6.67613653 28.81221662 -6.7059324 32.39760938 -6.73205566 35.98327637 C-6.7618513 39.64327439 -6.80838495 43.30305525 -6.85351562 46.96289062 C-6.93957151 54.14181938 -7.00690619 61.32076388 -7.0625 68.5 C-7.7225 68.5 -8.3825 68.5 -9.0625 68.5 C-9.17846849 60.37226579 -9.26725177 52.24487852 -9.32156086 44.11652088 C-9.34762982 40.3419499 -9.38297629 36.56794586 -9.43969727 32.79370117 C-9.49411681 29.14969519 -9.52394086 25.50623369 -9.53688622 21.86185265 C-9.54610857 20.47314573 -9.56411853 19.08446785 -9.59115028 17.69599342 C-9.62756071 15.74790256 -9.62954339 13.79926109 -9.63012695 11.85083008 C-9.64123001 10.7427449 -9.65233307 9.63465973 -9.66377258 8.49299622 C-8.67618746 3.57702528 -5.24248153 -0.25013828 0 0 Z " fill="#1D2E49" transform="translate(59.0625,9.5)"/>
<path d="M0 0 C0.99 0 1.98 0 3 0 C3.13277344 0.68707031 3.26554687 1.37414063 3.40234375 2.08203125 C3.57894531 2.98308594 3.75554687 3.88414063 3.9375 4.8125 C4.11152344 5.70582031 4.28554687 6.59914063 4.46484375 7.51953125 C4.97741153 10.11397171 4.97741153 10.11397171 6 13 C10.62 13.66 15.24 14.32 20 15 C19.67 15.66 19.34 16.32 19 17 C17.83082031 17.00257812 16.66164063 17.00515625 15.45703125 17.0078125 C13.90881632 17.04534498 12.36063995 17.08449266 10.8125 17.125 C10.04357422 17.12242188 9.27464844 17.11984375 8.48242188 17.1171875 C4.08830897 17.2084178 4.08830897 17.2084178 0.43896484 19.39355469 C-0.74324919 20.90157574 -1.87479082 22.4489804 -3 24 C-3.99 24 -4.98 24 -6 24 C-5.52653165 19.73878485 -3.03860562 17.81626862 0 15 C0.66 14.34 1.32 13.68 2 13 C1.50886719 12.15695313 1.50886719 12.15695313 1.0078125 11.296875 C-0.11785494 8.73140036 -0.2068111 7.03157723 -0.125 4.25 C-0.10695313 3.45078125 -0.08890625 2.6515625 -0.0703125 1.828125 C-0.04710938 1.22484375 -0.02390625 0.6215625 0 0 Z " fill="#242D48" transform="translate(65,45)"/>
<path d="M0 0 C0.66 0 1.32 0 2 0 C2 20.13 2 40.26 2 61 C0.515 61.495 0.515 61.495 -1 62 C-0.67 41.54 -0.34 21.08 0 0 Z " fill="#102A4A" transform="translate(44,17)"/>
<path d="M0 0 C-0.56371414 3.26954202 -1.49962266 4.82575883 -4 7 C-2.79618552 9.49361571 -1.54571278 11.68143083 0 14 C0 15.32 0 16.64 0 18 C-0.99 17.67 -1.98 17.34 -3 17 C-3.25910156 16.39285156 -3.51820312 15.78570312 -3.78515625 15.16015625 C-5.59986161 11.93336504 -8.16628026 11.0676396 -11.4375 9.4375 C-18.9296142 5.67888628 -18.9296142 5.67888628 -21 3 C-21 2.34 -21 1.68 -21 1 C-18.03824877 1.61277612 -16.61941217 2.25372522 -14 4 C-9.73114338 4.4743174 -7.73521116 4.52281682 -4.1875 2 C-2 0 -2 0 0 0 Z " fill="#272D48" transform="translate(39,29)"/>
<path d="M0 0 C0.66 0.33 1.32 0.66 2 1 C1.43434782 4.28078267 0.6219753 5.92475946 -2 8 C-4.19140625 8.328125 -4.19140625 8.328125 -6.5625 8.25 C-7.74005859 8.22679687 -7.74005859 8.22679687 -8.94140625 8.203125 C-11 8 -11 8 -13 7 C-13 6.01 -13 5.02 -13 4 C-12.31292969 4.04640625 -11.62585938 4.0928125 -10.91796875 4.140625 C-9.56638672 4.19476563 -9.56638672 4.19476563 -8.1875 4.25 C-6.84751953 4.31960937 -6.84751953 4.31960937 -5.48046875 4.390625 C-2.83325291 4.23981033 -2.83325291 4.23981033 -1.17578125 1.984375 C-0.78777344 1.32953125 -0.39976563 0.6746875 0 0 Z " fill="#272D48" transform="translate(76,28)"/>
<path d="M0 0 C-0.99 1.485 -0.99 1.485 -2 3 C-4.3828125 3.29296875 -4.3828125 3.29296875 -7.125 3.1875 C-8.03507812 3.16042969 -8.94515625 3.13335938 -9.8828125 3.10546875 C-10.58148437 3.07066406 -11.28015625 3.03585938 -12 3 C-11.67 2.01 -11.34 1.02 -11 0 C-3.375 -1.125 -3.375 -1.125 0 0 Z " fill="#1E2E49" transform="translate(32,15)"/>
<path d="M0 0 C2.97 0 5.94 0 9 0 C8.67 0.99 8.34 1.98 8 3 C5.36 3 2.72 3 0 3 C0 2.01 0 1.02 0 0 Z " fill="#1E2D49" transform="translate(71,75)"/>
<path d="M0 0 C0.99 0 1.98 0 3 0 C3.3125 2.8125 3.3125 2.8125 3 6 C0.5 7.875 0.5 7.875 -2 9 C-1.34 6.03 -0.68 3.06 0 0 Z " fill="#2C3847" transform="translate(86,33)"/>
<path d="M0 0 C1.98 0.495 1.98 0.495 4 1 C3.34 3.97 2.68 6.94 2 10 C1.67 10 1.34 10 1 10 C1 7.36 1 4.72 1 2 C0.34 1.67 -0.32 1.34 -1 1 C-0.67 0.67 -0.34 0.34 0 0 Z " fill="#182B49" transform="translate(9,59)"/>
<path d="M0 0 C2.64 0.33 5.28 0.66 8 1 C7.67 1.66 7.34 2.32 7 3 C4.67843403 3.40729228 2.3431213 3.74438677 0 4 C0 2.68 0 1.36 0 0 Z " fill="#172C4A" transform="translate(66,14)"/>
</svg>
